<svg width="16" height="17" viewBox="0 0 16 17" fill="none" xmlns="http://www.w3.org/2000/svg">
<g id="Star Icon">
<path id="Rating/Star Fill" d="M7.53834 1.28358C7.70914 0.872934 8.29086 0.872932 8.46166 1.28358L9.99874 4.97917C10.0707 5.15229 10.2336 5.27058 10.4204 5.28556L14.4102 5.60541C14.8535 5.64095 15.0332 6.19421 14.6955 6.48354L11.6557 9.0874C11.5133 9.20937 11.4512 9.40076 11.4947 9.58314L12.4234 13.4764C12.5265 13.909 12.0559 14.251 11.6764 14.0191L8.26063 11.9328C8.10062 11.8351 7.89938 11.8351 7.73937 11.9328L4.32363 14.0191C3.94408 14.251 3.47345 13.909 3.57665 13.4764L4.50534 9.58314C4.54884 9.40076 4.48665 9.20937 4.34426 9.0874L1.30453 6.48354C0.966758 6.19421 1.14652 5.64095 1.58985 5.60541L5.57955 5.28556C5.76645 5.27058 5.92925 5.15229 6.00126 4.97917L7.53834 1.28358Z" fill="#141718"/>
</g>
</svg>
